<svg xmlns="http://www.w3.org/2000/svg" width="100" height="100" viewBox="0 0 100 100">
    <circle fill="#000000" cx="50" cy="50" r="50"/>
	<path fill="#ffffff" d="M49.482 9.357c.664.304 1.538.855 1.974 1.234.931.817 1.898 2.564 2.069 3.759l.133.874 1.842.095c1.576.076 2.05.19 3.19.702 2.639 1.215 3.854 3.057 4.007 6 .076 1.405.171 1.823.569 2.431l.474.721-.398.798c-.228.455-.531 1.386-.702 2.069l-.398 1.576c-.133.323-.114.323-2.393-.019-.912-.133-.912-.114-1.196.55-.152.379-.285 1.102-.285 1.614v.95l1.386 1.026c1.272.969 2.734 2.24 7.348 6.398l1.785 1.614 1.102-1.196c1.367-1.5 2.374-3 2.981-4.481.855-2.012.588-5.639-.304-4.329-.171.247-.417.436-.588.436-.247 0-.266-.588-.152-5.088l-.057-5.677c-.095-.342-.114-.664-.057-.702.076-.038.569-.114 1.083-.133l.95-.076.228 1.614.228 2.602c.019.95.038.988.683 1.196.721.247 1.139.779.988 1.329-.076.304 0 .342.588.247.493-.095.874 0 1.481.342.721.379.836.531.836 1.064 0 .436.095.626.379.721.55.171.493.588-.512 3.588-.931 2.81-3.323 7.804-5.924 12.341l-1.405 2.45-1.234-.114c-.95-.095-1.747-.361-3.455-1.177-1.234-.569-2.297-1.045-2.374-1.045-.228 0 .038 3.74.455 6.55.209 1.348.798 4.728 1.329 7.5 1.007 5.24 1.614 9.019 1.842 11.335l.114 1.348-.664.588c-1.064.95-1.215 1.5-1.367 4.841l-.133 3.038.74-.55c5.102-3.827 8.715-9.314 10.215-15.512 1.272-5.259.95-10.69-.969-15.854l-.664-1.766 1.557-2.791c.836-1.557 1.614-2.886 1.69-2.981.228-.228 4.896 8.145 4.879 16.945-.045 20.278-16.337 32.97-32.98 32.97-16.513 0-32.896-12.686-32.896-32.971 0-9.994 4.356-16.451 4.964-17.23l.361-.455.323 1.12c.474 1.671 1.215 3.095 2.05 4.007l.74.817-.683 1.709c-3.417 8.545-2.393 17.848 2.791 25.538 1.234 1.804 4.709 5.45 6.247 6.512l.912.626v-3.19c0-1.747-.133-5.696-.304-8.791-.361-6.493-.266-15.797.209-20.411l.285-3.209c0-.304-.114-.323-1.31-.209-1.462.152-2.107-.057-2.107-.683 0-.304-.076-.361-.323-.266-.512.209-3 .361-3.569.209-.664-.171-1.5-1.538-2.088-3.379-.247-.798-.759-3.531-1.139-6.076-.569-3.873-.798-4.879-1.367-6.304-.969-2.431-1.026-2.696-.798-3.759.266-1.196 1.026-1.993 3.209-3.304 2.297-1.405 2.374-1.5 2.183-3.057-.304-2.658-.304-2.696.702-3.266.474-.266.931-.436.988-.379s.285 1.614.493 3.493c.361 3.247.779 5.488 1.177 6.228.133.285.019.702-.531 1.766-.379.779-.779 1.405-.874 1.405s-.342-.095-.531-.19c-.304-.171-.417-.095-.664.361-.361.721-.361 2.297 0 3.209.228.512 2.297 3.854 3.076 4.955.076.114.855-.323 2.336-1.291 1.234-.817 4.234-3.645 5.316-5.05.664-.874.759-1.102.759-2.031 0-1.007.019-1.045.683-1.367a7.94 7.94 0 0 0 1.329-.798c.855-.664.626-1.083-.836-1.519-1.633-.512-1.633-.493-1.462-2.259.228-2.316.209-2.886-.152-3.285-.285-.304-.285-.398-.057-.588.361-.304.988-1.785 1.367-3.323.171-.721.607-1.709.931-2.221.607-.893.607-.912.266-1.234-.664-.607-.455-1.158.645-1.709 1.386-.721 1.917-.836 3.683-.759 1.253.057 1.804.19 2.753.645l-.002.001z"/>
	<path fill="#000000" d="M50.38 52.362c-.398.817-.417.893-.209 4.196.342 5.62.304 6.379-.398 7.765-.569 1.12-.607 1.329-.779 4.5-.133 2.412-.114 3.835.038 5.221.133 1.064.209 2.601.19 3.436-.038 1.31.057 1.747.531 3.038.323.817.779 2.336 1.007 3.36l.436 1.841.969-.095c2.336-.266 2.088-.057 2.355-2.069l.607-3.266c.228-1.026.285-1.538.152-1.614-.114-.076-.759-.19-1.443-.266-2.012-.209-2.126-.304-2.126-1.823 0-1.12-.057-1.329-.417-1.576a1.87 1.87 0 0 0-.95-.304c-.493 0-.531-.038-.398-.531.095-.285.133-.95.114-1.462-.171-3.398-.095-4.955.304-6.076.228-.626.759-2.943 1.158-5.126.874-4.614 1.31-6.208 2.05-7.746.55-1.083.398-1.538-.209-.664l-.304.436v-.474c-.019-.361-.076-.398-.247-.228-.157.141-.358.221-.569.228-.266 0-.304-.076-.152-.474.247-.664-.057-.74-.361-.076-.323.74-.55.702-.512-.133.019-.988-.342-1.007-.836-.019v.003zm-.171-30.435c-.702 1.158-.683 3.303.057 4.69.209.417.266.152.361-2.336l.038-2.886c-.038-.038-.247.19-.455.531h-.001z"/>
</svg>