<svg xmlns="http://www.w3.org/2000/svg" width="100" height="100" viewBox="0 0 100 100">
    <circle fill="#000000" cx="50" cy="50" r="50"/>
    <path fill="#ffffff" d="M49.039 7.242c.699.32 1.618.899 2.077 1.298.979.859 1.997 2.697 2.177 3.955l.14.919 1.938.1c1.658.08 2.157.2 3.356.739 2.776 1.278 4.055 3.216 4.215 6.312.08 1.478.18 1.918.599 2.557l.499.759-.419.839c-.24.479-.559 1.458-.739 2.177l-.419 1.658c-.14.34-.12.34-2.517-.02-.959-.14-.959-.12-1.258.579-.16.399-.3 1.159-.3 1.698v.999l1.458 1.079c1.338 1.019 2.876 2.357 7.73 6.731l1.878 1.698 1.159-1.258c1.438-1.578 2.497-3.156 3.136-4.714.899-2.117.619-5.932-.32-4.554-.18.26-.439.459-.619.459-.26 0-.28-.619-.16-5.353.08-3.256.06-5.593-.06-5.972-.1-.36-.12-.699-.06-.739.08-.04.599-.12 1.139-.14l.999-.08.24 1.698c.12.939.24 2.157.24 2.737.02.999.04 1.039.719 1.258.759.26 1.198.819 1.039 1.398-.08.32 0 .36.619.26.519-.1.919 0 1.558.36.759.399.879.559.879 1.119 0 .459.1.659.399.759.579.18.519.619-.539 3.775-.979 2.956-3.496 8.21-6.232 12.983l-1.478 2.577-1.298-.12c-.999-.1-1.838-.38-3.635-1.238-1.298-.599-2.417-1.099-2.497-1.099-.24 0 .04 3.935.479 6.891.22 1.418.839 4.974 1.398 7.89 1.059 5.513 1.698 9.488 1.938 11.925l.12 1.418-.699.619c-1.119.999-1.278 1.578-1.438 5.093l-.14 3.196.779-.579a28.9 28.9 0 0 0 10.746-16.319c1.338-5.533.999-11.246-1.019-16.679l-.699-1.858 1.638-2.936c.879-1.638 1.698-3.036 1.778-3.136.24-.24 5.151 8.569 5.133 17.826C84.649 80.119 67.509 93.471 50 93.471c-17.372 0-34.607-13.346-34.607-34.686 0-10.514 4.583-17.307 5.222-18.126l.38-.479.34 1.178c.499 1.758 1.278 3.256 2.157 4.215l.779.859-.719 1.798c-3.595 8.989-2.517 18.776 2.936 26.866 1.298 1.898 4.954 5.733 6.572 6.851l.959.659V79.25c0-1.838-.14-5.992-.32-9.248-.38-6.831-.28-16.619.22-21.473l.3-3.376c0-.32-.12-.34-1.378-.22-1.538.16-2.217-.06-2.217-.719 0-.32-.08-.38-.34-.28-.539.22-3.156.38-3.755.22-.699-.18-1.578-1.618-2.197-3.555-.26-.839-.799-3.715-1.198-6.392-.599-4.075-.839-5.133-1.438-6.632-1.019-2.557-1.079-2.836-.839-3.955.28-1.258 1.079-2.097 3.376-3.476 2.417-1.478 2.497-1.578 2.297-3.216-.32-2.796-.32-2.836.739-3.436.499-.28.979-.459 1.039-.399s.3 1.698.519 3.675c.38 3.416.819 5.773 1.238 6.552.14.3.02.739-.559 1.858-.399.819-.819 1.478-.919 1.478s-.36-.1-.559-.2c-.32-.18-.439-.1-.699.38-.38.759-.38 2.417 0 3.376.24.539 2.417 4.055 3.236 5.213.08.12.899-.34 2.457-1.358 1.298-.859 4.454-3.835 5.593-5.313.699-.919.799-1.159.799-2.137 0-1.059.02-1.099.719-1.438.399-.18 1.039-.559 1.398-.839.899-.699.659-1.139-.879-1.598-1.718-.539-1.718-.519-1.538-2.377.24-2.437.22-3.036-.16-3.456-.3-.32-.3-.419-.06-.619.38-.32 1.039-1.878 1.438-3.496.18-.759.639-1.798.979-2.337.639-.939.639-.959.28-1.298-.699-.639-.479-1.218.679-1.798 1.458-.759 2.017-.879 3.875-.799 1.318.06 1.898.2 2.896.679z"/>
    <path fill="#000000" d="M50.398 52.485c-.419.859-.439.939-.22 4.414.36 5.912.32 6.711-.419 8.169-.599 1.178-.639 1.398-.819 4.734-.14 2.537-.12 4.035.04 5.493.14 1.119.22 2.736.2 3.615-.04 1.378.06 1.838.559 3.196.34.859.819 2.457 1.059 3.535l.459 1.937 1.019-.1c2.457-.28 2.197-.06 2.477-2.177l.639-3.436c.24-1.079.3-1.618.16-1.698-.12-.08-.799-.2-1.518-.28-2.117-.22-2.237-.32-2.237-1.918 0-1.178-.06-1.398-.439-1.658a1.97 1.97 0 0 0-.999-.32c-.519 0-.559-.04-.419-.559.1-.3.14-.999.12-1.538-.18-3.575-.1-5.213.32-6.392.24-.659.799-3.096 1.218-5.393.919-4.854 1.378-6.531 2.157-8.149.579-1.139.419-1.618-.22-.699l-.32.459v-.499c-.02-.38-.08-.419-.26-.24a.94.94 0 0 1-.599.24c-.28 0-.32-.08-.16-.499.26-.699-.06-.779-.38-.08-.34.779-.579.739-.539-.14.02-1.039-.36-1.059-.879-.02zm-.18-32.018c-.739 1.218-.719 3.475.06 4.934.22.439.28.16.38-2.457l.04-3.036c-.04-.04-.26.2-.479.559z"/>
</svg>
